<?xml version="1.0" encoding="UTF-8"?>
<svg width="100" height="100" viewBox="0 0 1000 1000" 
     xmlns="http://www.w3.org/2000/svg">
  
  <g transform="scale(1, -1) translate(0, -635)">
    <path d="M929 314q-85 132 -213 197q34 -58 34 -125q0 -104 -73 -177t-177 -73t-177 73t-73 177q0 67 34 125q-128 -65 -213 -197q75 -114 187 -182t242 -68t242 68t187 182zM527 529q0 11 -8 19t-19 7q-70 0 -120 -50t-50 -119q0 -12 8 -19t19 -8t19 8t8 19q0 48 34 82t82 34
q11 0 19 8t8 19zM1000 314q0 -19 -11 -38q-78 -129 -210 -206t-279 -77t-279 77t-210 206q-11 19 -11 38t11 39q78 128 210 205t279 78t279 -78t210 -205q11 -20 11 -39z" 
          fill="#333333"/>
  </g>
</svg>