<?xml version="1.0" encoding="UTF-8"?>
<svg width="100" height="100" viewBox="0 0 1000 1000" 
     xmlns="http://www.w3.org/2000/svg">
  
  <g transform="scale(1, -1) translate(0, -707)">
    <path d="M1000 350q0 -97 -67 -179t-182 -130t-251 -48q-39 0 -81 4q-110 -97 -257 -135q-27 -8 -63 -12q-10 -1 -17 5t-10 16v1q-2 2 0 6t1 6t2 5l12 15q4 5 17 19l20 22q7 8 17 22t18 28t15 33l15 42q-88 50 -138 123t-51 157q0 73 40 139t106 114t160 76t194 28q136 0 251 -48
t182 -130t67 -179z" 
          fill="#333333"/>
  </g>
</svg>