<?xml version="1.0" encoding="UTF-8"?>
<svg width="100" height="100" viewBox="0 0 1000 1000" 
     xmlns="http://www.w3.org/2000/svg">
  
  <g transform="scale(1, -1) translate(0, -850)">
  <path d="M946 636q23 0 38 -16t16 -38v-678q0 -23 -16 -38t-38 -16h-535q-23 0 -38 16t-16 38v160h-303q-23 0 -38 16t-16 38v375q0 22 11 49t27 42l228 228q15 16 42 27t49 11h232q23 0 38 -16t16 -38v-183q38 23 71 23h232zM643 517l-167 -167h167v167zM286 731l-167 -167h167
v167zM395 370l176 176v233h-214v-233q0 -22 -15 -38t-38 -15h-233v-357h286v143q0 22 11 49t27 42zM929 -79v643h-215v-232q0 -22 -15 -38t-38 -15h-232v-358h500z" 
        fill="#333333"
        stroke="none"/>
		</g>
		
</svg>