<?xml version="1.0" encoding="UTF-8"?>
<svg width="100" height="115" viewBox="0 0 1000 1000" 
     xmlns="http://www.w3.org/2000/svg">
  
  <g transform="scale(1, -1) translate(0, -704)">
    <path d="M286 82v393q0 8 -5 13t-13 5h-36q-8 0 -13 -5t-5 -13v-393q0 -8 5 -13t13 -5h36q8 0 13 5t5 13zM429 82v393q0 8 -5 13t-13 5h-36q-8 0 -13 -5t-5 -13v-393q0 -8 5 -13t13 -5h36q8 0 13 5t5 13zM571 82v393q0 8 -5 13t-12 5h-36q-8 0 -13 -5t-5 -13v-393q0 -8 5 -13
t13 -5h36q7 0 12 5t5 13zM268 636h250l-27 65q-4 5 -9 6h-177q-6 -1 -10 -6zM786 618v-36q0 -8 -5 -13t-13 -5h-54v-529q0 -46 -26 -80t-63 -34h-464q-37 0 -63 33t-27 79v531h-53q-8 0 -13 5t-5 13v36q0 8 5 13t13 5h172l39 93q9 21 31 35t44 15h178q22 0 44 -15t30 -35
l39 -93h173q8 0 13 -5t5 -13z" 
          fill="#333333"/>
  </g>
</svg>