<?xml version="1.0" encoding="UTF-8"?>
<svg width="100" height="115" viewBox="0 0 1000 1000" 
     xmlns="http://www.w3.org/2000/svg">
  
  <g transform="scale(1, -1) translate(0, -739)">
    <path d="M277 100q0 -33 -24 -57t-57 -23.5t-56 23.5t-24 57t24 57t57 23t56 -23t24 -57zM518 -7q0 -30 -21 -51t-51 -21t-50 21t-21 51t21 50t50 21t51 -21t21 -50zM179 350q0 -37 -27 -63t-63 -26t-63 26t-26 63t26 63t63 26t63 -26t27 -63zM759 100q0 -26 -18 -44t-45 -18
t-44 18t-18 44t18 44t44 19t45 -19t18 -44zM295 600q0 -41 -29 -69t-70 -29t-69 29t-29 69t29 69t69 29t70 -29t29 -69zM554 707q0 -45 -32 -76t-76 -31t-75 31t-32 76t32 76t75 31t76 -31t32 -76zM857 350q0 -22 -15 -38t-38 -16t-38 16t-16 38t16 38t38 16t38 -16t15 -38z
M741 600q0 -18 -13 -32t-32 -13t-31 13t-13 32t13 31t31 14t32 -14t13 -31z" 
          fill="#333333"/>
  </g>
</svg>