<?xml version="1.0" encoding="UTF-8"?>
<svg width="100" height="115" viewBox="0 0 1000 1000" 
     xmlns="http://www.w3.org/2000/svg">
  
  <g transform="scale(1, -1) translate(0, -775)">
    <path d="M143 600q0 15 -11 25t-25 11t-25 -11t-11 -25t11 -25t25 -11t25 11t11 25zM786 279q0 19 -12 45t-30 26q8 10 14 27t5 30q0 39 -29 67q10 18 10 38t-10 41t-26 30q2 16 2 31q0 47 -27 70t-76 23h-71q-73 0 -191 -41l-16 -6q-13 -5 -20 -7l-41 -12l-18 -4q-10 -2 -18 -1
h-18v-358h18q9 0 20 -5t22 -15t22 -19t22 -25t19 -24t18 -23t13 -16q30 -38 43 -51q23 -24 33 -61t17 -70t21 -48q54 0 72 27t17 81q0 32 -26 89t-27 89h196q28 0 50 22t22 49v1zM857 278q0 -57 -42 -100t-101 -42h-98q27 -55 27 -107q0 -66 -19.5 -104.5t-57.5 -56.5
t-84 -18q-28 0 -50 21q-19 18 -30 45t-14 51t-10 47t-17 36q-27 28 -60 71q-57 73 -77 86h-153q-29 0 -50 21t-21 51v357q0 29 21 50t50 21h161q12 0 77 22q72 25 125 37t111 13h63q78 0 126 -45t48 -120v-3q33 -43 33 -99q0 -13 -1 -24q21 -38 21 -81q0 -20 -5 -38
q27 -41 27 -91z" 
          fill="#333333"/>
  </g>
</svg>