<?xml version="1.0" encoding="UTF-8"?>
<svg width="100" height="115" viewBox="0 0 1000 1000" 
     xmlns="http://www.w3.org/2000/svg">
  
  <g transform="scale(1, -1) translate(0, -775)">
    <path d="M143 100q0 15 -11 25t-25 11t-25 -11t-11 -25t11 -25t25 -11t25 11t11 25zM786 421q0 29 -22 50t-50 22h-196q0 32 27 89t26 89q0 55 -17 81t-72 27q-14 -15 -21 -48t-17 -70t-33 -61q-13 -13 -43 -51l-13 -17q-11 -14 -18 -22t-19 -24t-22 -25l-22 -19q-12 -10 -22 -16
t-20 -5h-18v-357h18q7 0 18 -1t18 -4t21 -6t20 -7t20 -7t16 -5q118 -41 191 -41h67q107 0 107 93q0 15 -2 31q16 9 26 30t10 41t-10 38q29 28 29 67q0 13 -5 31t-14 26q18 1 30 26t12 45zM857 422q0 -50 -27 -91q5 -18 5 -38q0 -43 -21 -81q1 -12 1 -24q0 -56 -33 -99
q0 -78 -48 -123t-126 -45h-72q-54 0 -106 13t-121 36q-65 23 -77 23h-161q-29 0 -50 21t-21 50v357q0 30 21 51t50 21h153q20 13 77 86q32 42 60 72q13 14 19 47t17 71t35 60q22 21 50 21q47 0 84 -18t57 -57t20 -104q0 -51 -27 -107h98q58 0 101 -42t42 -100z" 
          fill="#333333"/>
  </g>
</svg>